<?xml version="1.0" encoding="UTF-8" standalone="no"?>
<!DOCTYPE svg PUBLIC "-//W3C//DTD SVG 1.1//EN" "http://www.w3.org/Graphics/SVG/1.1/DTD/svg11.dtd">
<svg width="100%" height="100%" viewBox="0 0 500 500" version="1.1" xmlns="http://www.w3.org/2000/svg" xmlns:xlink="http://www.w3.org/1999/xlink" xml:space="preserve" xmlns:serif="http://www.serif.com/" style="fill-rule:evenodd;clip-rule:evenodd;stroke-linejoin:round;stroke-miterlimit:2;">
    <g transform="matrix(1.2838,-0.00758203,0.00758203,1.2838,-59.8984,-96.7203)">
        <g transform="matrix(0.898083,-0.278984,0.316312,1.01824,-108.557,46.3211)">
            <path d="M416.037,195.518L108.772,195.518L108.772,390.309L416.037,390.309L416.308,315.314C403.218,296.926 405.823,293.797 417.521,268.101L416.037,195.518Z" style="fill:rgb(52,162,184);"/>
        </g>
        <g transform="matrix(0.999983,0.00590584,-0.00590584,0.999983,-8.73031,20.0184)">
            <path d="M413.92,149.474L295.764,186.945L320.989,266.486L439.145,229.015L413.92,149.474ZM409.667,195.601C413.565,207.086 407.405,219.575 395.92,223.473C384.435,227.372 371.945,221.212 368.047,209.727C364.149,198.242 370.309,185.752 381.794,181.854C393.279,177.956 405.768,184.116 409.667,195.601Z" style="fill:rgb(52,162,184);"/>
        </g>
        <g transform="matrix(1,0,0,1,6.58493,21.3722)">
            <path d="M397.714,150.562L320.339,107.967L308.563,203.226L397.714,150.562Z" style="fill:rgb(52,162,184);"/>
        </g>
        <g transform="matrix(1,0,0,1,6.58493,21.3722)">
            <path d="M381.954,306.311L422.469,230.251L327.042,236.721L381.954,306.311Z" style="fill:rgb(52,162,184);"/>
        </g>
    </g>
</svg>
